#!OML:ASF H:\MichaelJackson\Top Level 1\Subject 1\Session 1\male.ASF
:FULLY-SPECIFIED
:DEGREES
342
root 11.0181 13.5412 -28.5412 -143.261 77.8334 -150.897
lowerback 24.3291 5.13553 5.31344
upperback 6.45845 9.21425 6.70311
thorax -6.63622 4.69081 1.57335
lowerneck -8.17222 -12.6142 -4.12609
upperneck 17.6365 -16.2302 0.207873
head 7.09627 -7.90966 -0.684972
rclavicle 4.6118e-014 -2.22639e-014
rhumerus 5.6028 6.32135 -88.0788
rradius 135.253
rwrist -46.0609
rhand -35.4972 -37.7624
rfingers 7.12502
rthumb -8.62463 -67.5662
lclavicle 4.6118e-014 -2.22639e-014
lhumerus -56.5839 -11.9265 80.1651
lradius 44.6295
lwrist 14.2196
lhand -28.3944 9.3068
lfingers 7.12502
lthumb -1.76683 39.2792
rfemur -73.7039 -5.14225 19.0144
rtibia 56.9785
rfoot -12.3564 4.55533
rtoes -30.6324
lfemur -39.1738 -0.971291 -8.56967
ltibia 97.036
lfoot -37.1904 -5.27155
ltoes -11.3641
343
root 11.2269 13.3791 -28.5335 -145.657 77.6916 -152.563
lowerback 24.5707 5.26233 5.26569
upperback 6.80627 9.42857 6.97619
thorax -6.43261 4.82349 1.82751
lowerneck -8.02268 -12.77 -4.09971
upperneck 17.5602 -16.4466 0.231708
head 7.05027 -8.00993 -0.688079
rclavicle 1.38354e-013 3.02153e-014
rhumerus 5.42473 7.33647 -87.7812
rradius 135.123
rwrist -45.9818
rhand -35.1109 -37.6275
rfingers 7.12502
rthumb -8.25179 -67.4463
lclavicle 1.38354e-013 3.02153e-014
lhumerus -57.4727 -11.1591 79.3546
lradius 43.9243
lwrist 14.1544
lhand -28.8945 9.13635
lfingers 7.12502
lthumb -2.24979 39.1042
rfemur -73.2985 -4.59138 17.8589
rtibia 55.6356
rfoot -13.0002 5.3701
rtoes -30.241
lfemur -38.2618 -1.06781 -8.44199
ltibia 98.6365
lfoot -37.1515 -6.46209
ltoes -10.5935
344
root 11.4397 13.2077 -28.5231 -148.192 77.4479 -154.388
lowerback 24.7537 5.37046 5.19125
upperback 7.11909 9.61068 7.26057
thorax -6.2457 4.93985 2.12122
lowerneck -7.88129 -12.9227 -4.02837
upperneck 17.5988 -16.66 0.239648
head 7.03764 -8.10359 -0.706454
rclavicle 2.38542e-014 -4.92986e-014
rhumerus 5.22284 8.26942 -87.5259
rradius 134.968
rwrist -45.6889
rhand -34.5636 -37.1234
rfingers 7.12502
rthumb -7.72359 -66.9624
lclavicle 2.38542e-014 -4.92986e-014
lhumerus -58.3965 -10.4913 78.5648
lradius 43.2231
lwrist 14.0069
lhand -29.2695 9.04902
lfingers 7.12502
lthumb -2.612 39.0128
rfemur -72.8991 -4.16027 16.8418
rtibia 54.7026
rfoot -13.6831 6.22868
rtoes -30.1652
lfemur -37.3824 -1.29081 -8.20566
ltibia 100.234
lfoot -37.1026 -7.93615
ltoes -9.62991
345
root 11.6548 13.027 -28.5108 -150.632 77.0877 -156.139
lowerback 24.9175 5.45068 5.14755
upperback 7.3805 9.76581 7.54621
thorax -6.10242 5.04034 2.40637
lowerneck -7.77142 -13.0739 -3.90016
upperneck 17.779 -16.8749 0.23667
head 7.07024 -8.19029 -0.743456
rclavicle -7.95139e-015 3.18055e-014
rhumerus 4.99538 9.08941 -87.3357
rradius 134.8
rwrist -45.0583
rhand -33.918 -36.3228
rfingers 7.12502
rthumb -7.10039 -66.1837
lclavicle -7.95139e-015 3.18055e-014
lhumerus -59.3601 -9.94661 77.7967
lradius 42.5311
lwrist 13.806
lhand -29.5291 9.01993
lfingers 7.12502
lthumb -2.86268 38.9805
rfemur -72.534 -3.86518 16.0438
rtibia 54.1923
rfoot -14.1889 7.16339
rtoes -31.0974
lfemur -36.5738 -1.62983 -7.80925
ltibia 101.845
lfoot -36.9905 -9.71929
ltoes -8.42148
346
root 11.8714 12.8402 -28.4986 -152.984 76.6532 -157.828
lowerback 25.0419 5.50546 5.13119
upperback 7.60351 9.8901 7.81013
thorax -5.97386 5.12393 2.66414
lowerneck -7.71328 -13.2281 -3.72142
upperneck 18.0932 -17.0979 0.231401
head 7.15052 -8.27248 -0.797714
rclavicle 9.06458e-014 2.8625e-014
rhumerus 4.76735 9.79809 -87.2189
rradius 134.638
rwrist -44.0504
rhand -33.2414 -35.3531
rfingers 7.12502
rthumb -6.44727 -65.2349
lclavicle 9.06458e-014 2.8625e-014
lhumerus -60.3488 -9.52052 77.0443
lradius 41.853
lwrist 13.5487
lhand -29.6678 9.05835
lfingers 7.12502
lthumb -2.99663 39.017
rfemur -72.2549 -3.72774 15.437
rtibia 54.1312
rfoot -14.1619 8.36324
rtoes -32.2604
lfemur -35.814 -2.08274 -7.32431
ltibia 103.454
lfoot -36.7808 -11.692
ltoes -7.10814
347
root 12.0866 12.6483 -28.4862 -155.051 76.1466 -159.251
lowerback 25.1718 5.5361 5.19717
upperback 7.7882 10.0029 8.04884
thorax -5.87265 5.19944 2.85083
lowerneck -7.71343 -13.3968 -3.5138
upperneck 18.5092 -17.3484 0.253197
head 7.27437 -8.35861 -0.85899
rclavicle -2.22639e-014 6.36111e-014
rhumerus 4.57788 10.3508 -87.1584
rradius 134.52
rwrist -42.7764
rhand -32.5976 -34.3712
rfingers 7.12502
rthumb -5.82568 -64.2711
lclavicle -2.22639e-014 6.36111e-014
lhumerus -61.3321 -9.22565 76.3015
lradius 41.1918
lwrist 13.2567
lhand -29.672 9.16471
lfingers 7.12502
lthumb -3.00067 39.1233
rfemur -72.126 -3.69674 14.9961
rtibia 54.5577
rfoot -13.3282 10.0391
rtoes -33.0095
lfemur -35.1289 -2.61774 -6.70545
ltibia 105.064
lfoot -36.411 -13.9798
ltoes -5.45097
348
root 12.2986 12.4522 -28.4749 -156.903 75.5822 -160.483
lowerback 25.307 5.53467 5.3481
upperback 7.94619 10.0934 8.25373
thorax -5.78265 5.2625 2.9598
lowerneck -7.76747 -13.5806 -3.30124
upperneck 18.9748 -17.6291 0.318933
head 7.42821 -8.45113 -0.917235
rclavicle -5.08889e-014 5.40694e-014
rhumerus 4.46155 10.7703 -87.137
rradius 134.491
rwrist -41.4394
rhand -32.0677 -33.4927
rfingers 7.12502
rthumb -5.31413 -63.4061
lclavicle -5.08889e-014 5.40694e-014
lhumerus -62.2864 -9.02584 75.5633
lradius 40.5391
lwrist 12.9414
lhand -29.5535 9.29284
lfingers 7.12502
lthumb -2.8863 39.2531
rfemur -72.2055 -3.76414 14.6258
rtibia 55.5248
rfoot -11.6374 12.1149
rtoes -33.0209
lfemur -34.5195 -3.2328 -6.00731
ltibia 106.664
lfoot -35.8763 -16.3961
ltoes -3.72138
349
root 12.5065 12.2535 -28.4637 -158.498 75.037 -161.457
lowerback 25.4784 5.52945 5.53333
upperback 8.10439 10.1891 8.43666
thorax -5.70036 5.32773 3.02163
lowerneck -7.85252 -13.7735 -3.12155
upperneck 19.4228 -17.9301 0.438433
head 7.59087 -8.54921 -0.959382
rclavicle -2.22639e-014 -6.36111e-015
rhumerus 4.46502 11.0948 -87.1187
rradius 134.562
rwrist -40.27
rhand -31.7337 -32.7943
rfingers 7.12502
rthumb -4.99157 -62.7155
lclavicle -2.22639e-014 -6.36111e-015
lhumerus -63.1935 -8.85705 74.8249
lradius 39.8902
lwrist 12.6
lhand -29.3153 9.43311
lfingers 7.12502
lthumb -2.65625 39.3963
rfemur -72.5265 -3.86391 14.3218
rtibia 57.0505
rfoot -9.22764 14.3726
rtoes -32.3336
lfemur -33.9269 -3.84772 -5.24482
ltibia 108.234
lfoot -35.1674 -18.9552
ltoes -1.79406
